<svg xmlns="http://www.w3.org/2000/svg" viewBox="0 0 134.3 151.16">
    <defs>
        <style></style>
    </defs>
    <linearGradient id="nomal" x1="0" y1="0" x2="0" y2="100%">
        <stop offset="0%" stop-color="#29A098" />
        <stop offset="100%" stop-color="#253EBF" stop-opacity=".58" />
    </linearGradient>
    <g id="图层_2" data-name="图层 2">
        <g id="图层_1-2" data-name="图层 1">
            <path class="cls-1" d="M131.21,22.94C97.46,22,75.64,6.12,69.16.73a3.14,3.14,0,0,0-4,0C58.67,6.14,36.84,22,3.09,22.94A3.12,3.12,0,0,0,0,26V89.38c0,28.36,42.56,61.78,67.15,61.78,23.9,0,67.15-33.42,67.15-61.78V26a3.15,3.15,0,0,0-3.09-3.09ZM39,49.91l15.88-2.3a3.17,3.17,0,0,0,2.37-1.72l7.11-14.4a3.14,3.14,0,0,1,5.62,0l7.11,14.4a3.19,3.19,0,0,0,2.36,1.72l15.88,2.3a3.14,3.14,0,0,1,1.74,5.35L85.59,66.46a3.08,3.08,0,0,0-.9,2.77L87.4,85.05a3.13,3.13,0,0,1-4.55,3.3l-14.2-7.46a3.06,3.06,0,0,0-2.91,0L51.5,88.35A3.14,3.14,0,0,1,47,85.05l2.72-15.82a3.13,3.13,0,0,0-.9-2.77L37.29,55.26A3.13,3.13,0,0,1,39,49.91Zm59.44,65.86a3.06,3.06,0,0,1-3.07,3.07H38.93a3.06,3.06,0,0,1-3.07-3.07v-7.64a3.06,3.06,0,0,1,3.07-3.06H95.37a3.06,3.06,0,0,1,3.07,3.06Z" />
        </g>
    </g>
</svg>