<svg xmlns="http://www.w3.org/2000/svg" viewBox="0 0 143.28 143.28">
    <defs></defs>
    <g id="图层_2" data-name="图层 2">
        <g id="图层_1-2" data-name="图层 1">
            <path class="cls-1" d="M71.64,0a71.64,71.64,0,1,0,71.64,71.64A71.63,71.63,0,0,0,71.64,0Zm0,132.59a61,61,0,1,1,61-60.95h0A61,61,0,0,1,71.64,132.59Z"/>
            <path class="cls-1" d="M116.92,45.37A52.59,52.59,0,0,0,98.75,26.61l-1.3-.77-17.36,30a18,18,0,0,1,9.54,15.82L124,72a53.13,53.13,0,0,0-7.11-26.67ZM71.64,89.68A17.91,17.91,0,0,1,62.19,87L45.08,117A53.13,53.13,0,0,0,71.64,124a52,52,0,0,0,25.1-6.41l1.29-.74L80.83,87.17A18.11,18.11,0,0,1,71.64,89.68ZM63.28,55.83,45.82,25.66A52.48,52.48,0,0,0,26.36,45.19a53.26,53.26,0,0,0-7.11,26.65l34.41-.2A17.94,17.94,0,0,1,63.28,55.83Z"/>
            <path class="cls-1" d="M61,71.64a10.69,10.69,0,1,0,21.38,0h0a10.69,10.69,0,0,0-21.38,0Z"/>
        </g>
    </g>
</svg>