<svg xmlns="http://www.w3.org/2000/svg" viewBox="0 0 151.88 132.19">
    <defs></defs>
    <g id="图层_2" data-name="图层 2">
        <g id="图层_1-2" data-name="图层 1">
            <path class="cls-1" d="M60.84,105.58a35.25,35.25,0,0,1,1.65-21.07c3.08-8.05,8.76-14,16.1-18.7,11.13-7.34,23.44-11.6,36.22-14.44a140.89,140.89,0,0,1,31.48-3.55c2.37,0,4.26.47,5.21,2.84s0,4-1.66,5.68c-5.2,5.44-7.1,12.31-8.75,19.41-2.14,8.52-4.27,17.28-6.63,25.8-.71,2.84-2.37,5.45-3.55,8-7.11,13.26-18.7,19.41-33.14,21.07-6.87.71-13.73.24-20.13-2.6a40.57,40.57,0,0,1-6.15-3.56c-1.42,3.56-2.84,7.11-5,7.58a4.46,4.46,0,0,1-5-2.6,5.16,5.16,0,0,1-.48-2.61,26.85,26.85,0,0,1,3.32-9.7c5.68-11.37,14-20.12,24.38-27.23,4-2.6,8-5,13-5.2,2.6-.24,4-2.37,4-5a4.23,4.23,0,0,0-4.49-4,46.27,46.27,0,0,0-9.95,2.37c-10.65,4.73-18.93,12.78-26,21.78a42.47,42.47,0,0,0-4.49,5.68ZM57.52,116.7H31c-4,0-7.34,2.84-7.34,6.39v1.66c0,3.55,3.32,6.39,7.34,6.39h23.2a37.44,37.44,0,0,1,3.31-14.44Z"/>
            <path class="cls-1" d="M122.38,0H9A9,9,0,0,0,0,9V97.77a8.94,8.94,0,0,0,9,8.75H55.63l-.71-3.07a39.79,39.79,0,0,1,1.66-23,37.48,37.48,0,0,1,3.55-6.86V29.83a3.08,3.08,0,1,1,6.15,0V66.76a48.7,48.7,0,0,1,7.58-5.92c2.6-1.66,5.2-3.08,7.81-4.5V17a3.08,3.08,0,0,1,6.15,0V53A115.87,115.87,0,0,1,111,45.69a196.9,196.9,0,0,1,20.12-3.08V9a8.79,8.79,0,0,0-8.76-9ZM23.44,76.7a3.08,3.08,0,0,1-6.16,0V42.14a3.08,3.08,0,0,1,6.16,0ZM45,76.7a3.08,3.08,0,0,1-6.16,0V23.44a3.08,3.08,0,1,1,6.16,0Z"/>
        </g>
    </g>
</svg>