<svg xmlns="http://www.w3.org/2000/svg" viewBox="0 0 135.23 143.28">
    <defs></defs>
    <g id="图层_2" data-name="图层 2">
        <g id="图层_1-2" data-name="图层 1">
            <path class="cls-1" d="M81.39,14.16v9.31a4.85,4.85,0,0,1-4.83,4.85h-.11a24.31,24.31,0,0,1-17.09-7.07C57.18,19.36,56.72,19,54.91,19s-2.23.31-4.44,2.22a24.32,24.32,0,0,1-17.09,7.06h-.2A24.34,24.34,0,0,1,16.1,21.23C14,19.34,13.48,19,11.71,19a4.85,4.85,0,0,1-4.85-4.85V4.86A4.85,4.85,0,0,1,11.7,0h.09a24.19,24.19,0,0,1,17,7.05l.24.2C31.15,9,31.6,9.3,33.3,9.3S35.53,9,37.76,7.08h0A24.15,24.15,0,0,1,54.77,0h.15A24.2,24.2,0,0,1,72,7l0,0,.26.21C74.39,9,74.83,9.3,76.53,9.3A4.86,4.86,0,0,1,81.39,14.16Z"/>
            <path class="cls-1" d="M90.09,68.12v5c0,1.45-1.75,2.62-3.92,2.62H73.92c-2.16,0-3.91-1.17-3.91-2.62v-5c0-1.45,1.75-2.62,3.91-2.62H86.17C88.34,65.5,90.09,66.67,90.09,68.12Z"/>
            <path class="cls-1" d="M90,85v5c0,1.45-1.74,2.62-3.91,2.62H73.81c-2.16,0-3.91-1.17-3.91-2.62V85c0-1.45,1.75-2.62,3.91-2.62H86.06C88.23,82.41,90,83.58,90,85Z"/>
            <path class="cls-1" d="M90.09,103.51v5c0,1.45-1.75,2.62-3.92,2.62H73.92c-2.16,0-3.91-1.17-3.91-2.62v-5c0-1.45,1.75-2.62,3.91-2.62H86.17C88.34,100.89,90.09,102.06,90.09,103.51Z"/>
            <path class="cls-2" d="M23.15,67.55l-.16.84a4.31,4.31,0,0,1,.81-.84Zm-13,66-.13.64h.79A4.43,4.43,0,0,1,10.17,133.58Zm114.59-.94a4.45,4.45,0,0,1-.56.87,4.77,4.77,0,0,1-.71.71h1.6ZM105.08,40.87H105a.81.81,0,0,1,.1.09Zm-50.27,0,0,.07.09-.07Zm-19,92.64a4.22,4.22,0,0,1-.62-1l-.37,1.72h1.71A4.39,4.39,0,0,1,35.77,133.51Z"/>
            <path class="cls-1" d="M135.13,137.8,113.18,35.39a4.55,4.55,0,0,0-4.44-3.59H51.14a4.54,4.54,0,0,0-4.43,3.59l-5,23.36a4.54,4.54,0,0,0-1.52-.26H19.42A4.52,4.52,0,0,0,15,62.15L.09,137.88A4.51,4.51,0,0,0,1,141.63a4.56,4.56,0,0,0,3.5,1.65h21a4.54,4.54,0,0,0,1.81-.37,4.66,4.66,0,0,0,1.82.37H130.7a4.53,4.53,0,0,0,4.43-5.48Zm-125-4.22a4.43,4.43,0,0,0,.66.64H10ZM23,68.39l.16-.84h.65A4.31,4.31,0,0,0,23,68.39Zm11.79,65.83.37-1.72a4.22,4.22,0,0,0,.62,1,4.39,4.39,0,0,0,.72.71Zm-7.53-8.09h-8l11-50.47h7.82Zm77.83-85.26,0,.09a.81.81,0,0,0-.1-.09Zm-50.27,0h.07l-.09.07Zm-9.92,85.25L61.35,49H98.53l16.55,77.16Zm78.6,8.1a4.77,4.77,0,0,0,.71-.71,4.45,4.45,0,0,0,.56-.87l.33,1.58Z"/>
        </g>
    </g>
</svg>