<svg xmlns="http://www.w3.org/2000/svg" viewBox="0 0 140.61 161.88">
    <defs></defs>
    <g id="图层_2" data-name="图层 2">
        <g id="图层_1-2" data-name="图层 1">
            <path class="cls-1" d="M11.33,161.88v-8.13H132.41v8.13Zm121.13-17.12H11.36V89.45A58,58,0,0,1,29.09,47.68a61.64,61.64,0,0,1,85.63,0,58,58,0,0,1,17.73,41.76v55.32ZM47,98.15H72v30.47L97,80.44H67.06V46.53ZM0,31.07l5.72-5.73L19.51,39.19,13.8,44.92Zm121.1,7.44,13.8-13.85,5.71,5.73-13.8,13.85Zm-21-15.38,9.76-17,7,4.06-9.76,17ZM27.83,10.23l7-4.07,9.76,17-7,4.07Zm39.51,9.35V0h8.13V19.59Z"/>
        </g>
    </g>
</svg>